# xmcd
#
# Track frame offsets: 
#        150
#        12557
#        24887
#        38705
#        50132
#        62055
#        75640
#        86637
#        98092
#        111242
#        121942
#        133317
#        144350
#        155215
#        167445
#        179662
#        194427
#        203977
#        214727
#        227187
#        237842
#        250092
#        260662
#        274057
#        285837
#        296390
#        308217
#        317705
#
# Disc length: 4379 seconds
#
# Revision: 9
# Processed by: cddbd v1.5.2PL0 Copyright (c) Steve Scherf et al.
# Submitted via: ExactAudioCopy v1.1
#
DISCID=9a11191c
DTITLE=Webb Pierce - Webb Pierce 1951-1958 - Disc 1
DYEAR=1990
DGENRE=Country
TTITLE0=Drifting Texas Sand (mono)
TTITLE1=If Crying Would Make You Care (mono)
TTITLE2=California Blues (Blue Yodel No. 4) (mono)
TTITLE3=You Scared The Love Right Out Of Me (mono)
TTITLE4=New Silver Bells (mono)
TTITLE5=Wondering (mono)
TTITLE6=You Know I'm Still In Love With You (mono)
TTITLE7=I'm Gonna See My Baby (mono)
TTITLE8=That Heart Belongs To Me (mono)
TTITLE9=I Just Can't Be True (mono)
TTITLE10=So Used To Loving You (mono)
TTITLE11=I Haven't Got The Heart (version 1) (mono)
TTITLE12=Slowly (version 1) (mono)
TTITLE13=The Last Waltz (mono)
TTITLE14=Bow Thy Head (mono)
TTITLE15=Country Church (mono)
TTITLE16=I Haven't Got The Heart (version 2) (mono)
TTITLE17=I'll Always Take Care Of You (mono)
TTITLE18=Back Street Affair (mono)
TTITLE19=I'm Only Wishin' (mono)
TTITLE20=I'll Go On Alone (mono)
TTITLE21=That's Me Without You (mono)
TTITLE22=Broken Engagement (mono)
TTITLE23=We'll Find A Way (mono)
TTITLE24=It's Been So Long (mono)
TTITLE25=Don't Throw Your Life Away (mono)
TTITLE26=Too Late To Worry Now (mono)
TTITLE27=There Stands The Glass (mono)
EXTD=The Wondering "Boy" 1951-1958 - Disc 1 of 4\n© 1990 Bear Family R
EXTD=ecords\n\nUPC: 4000127155221\nCat Number: BCD 15522 DH\n\nOrigina
EXTD=lly Released September 15, 1990\n\n\nAMG EXPERT REVIEW:  \nFor th
EXTD=e devout, Germany's Bear Family offers a 4-CD boxed set of Pierce
EXTD='s primal honky tonk, a total of 113 songs by one of the seminal 
EXTD=post-war country artists, including duets with Kitty Wells, Red S
EXTD=ovine, and the Wilburn Brothers. This is the best sound quality a
EXTD=nd presentation available of this influential music.  -- Mark A. 
EXTD=Humphrey\n\nAmazon.com Editorial Review: \n(4-CD LP-sized box set
EXTD=with 36-page book) Webb Pierce is one of the neglected giants of
EXTD=post-War country music. No-one sold more records in the '50s, ye
EXTD=t those classic cuts were never available on CD until this set. H
EXTD=ere they are again... Back Street Affair, More And More, I Don't 
EXTD=Care, There Stands The Glass, In The Jailhouse Now, Honky Tonk So
EXTD=ng, Any Old Time, Teenage Boogie, Slowly, Honky Tonk Song, I'm Wa
EXTD=lking The Dog...they're all here. 113 performances - an incredibl
EXTD=e 40 of them were hits!\n
EXTT0=
EXTT1=
EXTT2=
EXTT3=
EXTT4=
EXTT5=
EXTT6=
EXTT7=
EXTT8=
EXTT9=
EXTT10=
EXTT11=
EXTT12=
EXTT13=
EXTT14=
EXTT15=
EXTT16=
EXTT17=
EXTT18=
EXTT19=
EXTT20=
EXTT21=
EXTT22=
EXTT23=
EXTT24=
EXTT25=
EXTT26=
EXTT27=
PLAYORDER=
